<?xml version="1.0" encoding="UTF-8" standalone="no"?>
<!-- Created with Inkscape (http://www.inkscape.org/) -->

<svg
   width="48"
   height="48"
   viewBox="0 0 12.7 12.7"
   version="1.1"
   id="svg1"
   inkscape:version="1.3.2 (091e20ef0f, 2023-11-25)"
   sodipodi:docname="numeric-6-circle-outline-symbolic.svg"
   xmlns:inkscape="http://www.inkscape.org/namespaces/inkscape"
   xmlns:sodipodi="http://sodipodi.sourceforge.net/DTD/sodipodi-0.dtd"
   xmlns="http://www.w3.org/2000/svg"
   xmlns:svg="http://www.w3.org/2000/svg">
  <sodipodi:namedview
     id="namedview1"
     pagecolor="#ffffff"
     bordercolor="#666666"
     borderopacity="1.0"
     inkscape:showpageshadow="2"
     inkscape:pageopacity="0.0"
     inkscape:pagecheckerboard="0"
     inkscape:deskcolor="#d1d1d1"
     inkscape:document-units="mm"
     showgrid="true"
     inkscape:zoom="16"
     inkscape:cx="44.75"
     inkscape:cy="22.25"
     inkscape:window-width="2560"
     inkscape:window-height="1371"
     inkscape:window-x="0"
     inkscape:window-y="0"
     inkscape:window-maximized="1"
     inkscape:current-layer="layer1">
    <inkscape:grid
       id="grid1"
       units="px"
       originx="0"
       originy="0"
       spacingx="0.26458334"
       spacingy="0.26458334"
       empcolor="#0099e5"
       empopacity="0.30196078"
       color="#0099e5"
       opacity="0.14901961"
       empspacing="5"
       dotted="false"
       gridanglex="30"
       gridanglez="30"
       visible="true" />
  </sodipodi:namedview>
  <defs
     id="defs1" />
  <g
     inkscape:label="Layer 1"
     inkscape:groupmode="layer"
     id="layer1">
    <ellipse
       style="fill:none;fill-opacity:1;stroke:#000000;stroke-width:0.264583;stroke-dasharray:none;stroke-opacity:1"
       id="path1"
       ry="6.0891538"
       rx="6.1221361"
       cy="6.3402853"
       cx="6.3780503" />
    <path
       style="font-weight:500;font-size:8.46667px;line-height:1.25;font-family:'JetBrains Mono';-inkscape-font-specification:'JetBrains Mono, Medium';stroke-width:0.264583"
       d="m 6.3584667,9.5673346 q -0.6096003,0 -1.0668005,-0.2455334 Q 4.8344661,9.0678011 4.580466,8.6190676 4.3264659,8.1703341 4.3264659,7.5776672 q 0,-0.3979335 0.1524,-0.8382004 Q 4.6397327,6.2992 4.9021994,5.8335331 L 6.3076666,3.3019988 H 7.247467 l -1.5409339,2.6670011 0.0254,0.016933 q 0.1100667,-0.1439334 0.3302001,-0.2286001 0.2286001,-0.084667 0.5080002,-0.084667 0.5334002,0 0.9398004,0.2370668 0.4064002,0.2370667 0.6350002,0.6604002 0.2286001,0.4233335 0.2286001,0.9906004 0,0.6011336 -0.2540001,1.0498671 Q 7.8655339,9.0593344 7.4083338,9.3133345 6.9596002,9.5673346 6.3584667,9.5673346 Z M 6.35,8.8307343 q 0.5334002,0 0.8551337,-0.3471334 0.3302001,-0.3471335 0.3302001,-0.9059337 0,-0.5672669 -0.3302001,-0.9144004 Q 6.8834002,6.3161333 6.35,6.3161333 q -0.5334002,0 -0.8636003,0.3471335 -0.3217335,0.3471335 -0.3217335,0.9144004 0,0.5588002 0.3217335,0.9059337 Q 5.8165998,8.8307343 6.35,8.8307343 Z"
       id="text2"
       aria-label="6" />
  </g>
</svg>
