<?xml version="1.0" encoding="UTF-8" standalone="no"?>
<!-- Created with Inkscape (http://www.inkscape.org/) -->

<svg
   width="48"
   height="48"
   viewBox="0 0 12.7 12.7"
   version="1.1"
   id="svg1"
   inkscape:version="1.3.2 (091e20ef0f, 2023-11-25)"
   sodipodi:docname="numeric-10-circle-outline-symbolic.svg"
   xmlns:inkscape="http://www.inkscape.org/namespaces/inkscape"
   xmlns:sodipodi="http://sodipodi.sourceforge.net/DTD/sodipodi-0.dtd"
   xmlns="http://www.w3.org/2000/svg"
   xmlns:svg="http://www.w3.org/2000/svg">
  <sodipodi:namedview
     id="namedview1"
     pagecolor="#ffffff"
     bordercolor="#666666"
     borderopacity="1.0"
     inkscape:showpageshadow="2"
     inkscape:pageopacity="0.0"
     inkscape:pagecheckerboard="0"
     inkscape:deskcolor="#d1d1d1"
     inkscape:document-units="mm"
     showgrid="true"
     inkscape:zoom="16.448709"
     inkscape:cx="38.057697"
     inkscape:cy="29.789571"
     inkscape:window-width="2560"
     inkscape:window-height="1371"
     inkscape:window-x="0"
     inkscape:window-y="0"
     inkscape:window-maximized="1"
     inkscape:current-layer="layer1">
    <inkscape:grid
       id="grid1"
       units="px"
       originx="0"
       originy="0"
       spacingx="0.26458334"
       spacingy="0.26458334"
       empcolor="#0099e5"
       empopacity="0.30196078"
       color="#0099e5"
       opacity="0.14901961"
       empspacing="5"
       dotted="false"
       gridanglex="30"
       gridanglez="30"
       visible="true" />
  </sodipodi:namedview>
  <defs
     id="defs1" />
  <g
     inkscape:label="Layer 1"
     inkscape:groupmode="layer"
     id="layer1">
    <ellipse
       style="fill:none;fill-opacity:1;stroke:#000000;stroke-width:0.264583;stroke-dasharray:none;stroke-opacity:1"
       id="path1"
       ry="6.0891538"
       rx="6.1221361"
       cy="6.3402853"
       cx="6.3780503" />
    <path
       style="font-weight:500;font-size:8.46667px;line-height:1.25;font-family:'JetBrains Mono';-inkscape-font-specification:'JetBrains Mono, Medium';stroke-width:0.264583"
       d="M 1.9769633,9.4403343 V 8.678334 H 3.627964 V 4.0131988 L 1.9684966,5.2493327 V 4.3010656 L 3.3739639,3.2596652 H 4.4661643 V 8.678334 h 1.3546672 v 0.7620003 z m 6.8664726,0.084667 q -0.8720671,0 -1.3800673,-0.4910668 Q 6.9553684,8.5344006 6.9553684,7.6962003 V 5.0037992 q 0,-0.8382003 0.5080002,-1.3292672 0.5080002,-0.4995335 1.3800673,-0.4995335 0.872067,0 1.3800671,0.4995335 0.508,0.4910669 0.508,1.3292672 v 2.6924011 q 0,0.5503335 -0.237066,0.9652004 Q 10.265836,9.0678008 9.8425029,9.2964009 9.4191694,9.525001 8.8434359,9.525001 Z m 0,-0.7196669 q 0.4910668,0 0.7874003,-0.3048002 Q 9.9271696,8.1872672 9.9271696,7.6962003 V 5.0037992 q 0,-0.4910668 -0.2963334,-0.795867 -0.2963335,-0.3132668 -0.7874003,-0.3132668 -0.4910669,0 -0.7874004,0.3132668 -0.2963334,0.3048002 -0.2963334,0.795867 v 2.6924011 q 0,0.4910669 0.2963334,0.8043336 0.2963335,0.3048002 0.7874004,0.3048002 z m 0,-1.9812008 q -0.2370668,0 -0.3810002,-0.1270001 Q 8.326969,6.5616665 8.326969,6.3245997 q 0,-0.2370667 0.1354667,-0.3556001 0.1439334,-0.127 0.3810002,-0.127 0.2370667,0 0.3810001,0.127 0.1439334,0.1185334 0.1439334,0.3556001 0,0.2370668 -0.1439334,0.3725335 -0.1439334,0.1270001 -0.3810001,0.1270001 z"
       id="text1"
       aria-label="10" />
  </g>
</svg>
