<?xml version="1.0" encoding="UTF-8" standalone="no"?>
<!-- Created with Inkscape (http://www.inkscape.org/) -->

<svg
   width="48"
   height="48"
   viewBox="0 0 12.7 12.7"
   version="1.1"
   id="svg1"
   inkscape:version="1.3.2 (091e20ef0f, 2023-11-25)"
   sodipodi:docname="numeric-3-circle-outline-symbolic.svg"
   xmlns:inkscape="http://www.inkscape.org/namespaces/inkscape"
   xmlns:sodipodi="http://sodipodi.sourceforge.net/DTD/sodipodi-0.dtd"
   xmlns="http://www.w3.org/2000/svg"
   xmlns:svg="http://www.w3.org/2000/svg">
  <sodipodi:namedview
     id="namedview1"
     pagecolor="#ffffff"
     bordercolor="#666666"
     borderopacity="1.0"
     inkscape:showpageshadow="2"
     inkscape:pageopacity="0.0"
     inkscape:pagecheckerboard="0"
     inkscape:deskcolor="#d1d1d1"
     inkscape:document-units="mm"
     showgrid="true"
     inkscape:zoom="16"
     inkscape:cx="44.75"
     inkscape:cy="22.25"
     inkscape:window-width="2560"
     inkscape:window-height="1371"
     inkscape:window-x="0"
     inkscape:window-y="0"
     inkscape:window-maximized="1"
     inkscape:current-layer="layer1">
    <inkscape:grid
       id="grid1"
       units="px"
       originx="0"
       originy="0"
       spacingx="0.26458334"
       spacingy="0.26458334"
       empcolor="#0099e5"
       empopacity="0.30196078"
       color="#0099e5"
       opacity="0.14901961"
       empspacing="5"
       dotted="false"
       gridanglex="30"
       gridanglez="30"
       visible="true" />
  </sodipodi:namedview>
  <defs
     id="defs1" />
  <g
     inkscape:label="Layer 1"
     inkscape:groupmode="layer"
     id="layer1">
    <ellipse
       style="fill:none;fill-opacity:1;stroke:#000000;stroke-width:0.264583;stroke-dasharray:none;stroke-opacity:1"
       id="path1"
       ry="6.0891538"
       rx="6.1221361"
       cy="6.3402853"
       cx="6.3780503" />
    <path
       style="font-weight:500;font-size:8.46667px;line-height:1.25;font-family:'JetBrains Mono';-inkscape-font-specification:'JetBrains Mono, Medium';stroke-width:0.264583"
       d="m 6.2653333,9.5673346 q -0.872067,0 -1.3800672,-0.4741335 Q 4.3772659,8.6106009 4.3772659,7.7893339 h 0.8382003 q 0,0.4826002 0.2794001,0.7620003 0.2878668,0.2709335 0.7789337,0.2709335 0.4826002,0 0.7704669,-0.2709335 Q 7.3321337,8.2719341 7.3321337,7.7893339 V 7.3575337 q 0,-0.4826001 -0.2878668,-0.7620003 Q 6.7648668,6.3076667 6.2738,6.3076667 H 5.579533 V 5.604933 L 7.069667,4.0555324 H 4.5635326 V 3.3019988 H 8.0094673 V 4.0639991 L 6.5362667,5.5879997 q 0.7535337,0.067733 1.1938005,0.5418669 0.4402669,0.4656668 0.4402669,1.2276671 v 0.4318002 q 0,0.821267 -0.5164669,1.3038672 Q 7.145867,9.5673346 6.2653333,9.5673346 Z"
       id="text2"
       aria-label="3" />
  </g>
</svg>
